#!OML:ASF F:\VICON\USERDATA\INSTALL\rory3\rory3.ASF
:FULLY-SPECIFIED
:DEGREES
82
root -1.30332 16.2318 -15.3945 1.54919 0.80151 -0.521582
lowerback 13.5685 1.43843 -3.78066
upperback -4.54113 1.42593 1.6265
thorax -12.8273 1.06202 3.59213
lowerneck -8.4353 -6.12306 -4.29236
upperneck 17.0432 -8.53829 4.40786
head 6.9692 -4.02631 1.37765
rclavicle -3.8763e-015 -5.56597e-015
rhumerus -31.8101 -4.52009 -81.7309
rradius 35.2966
rwrist -4.44746
rhand -12.0247 19.1568
rfingers 7.12502
rthumb 14.0332 -10.3494
lclavicle -3.8763e-015 -5.56597e-015
lhumerus -43.8502 8.16126 84.2873
lradius 20.0393
lwrist -1.87819
lhand -4.21236 17.7273
lfingers 7.12502
lthumb 21.55 46.5484
rfemur 0.351776 14.6352 29.6097
rtibia 19.7462
rfoot -17.0152 -8.22588
rtoes -6.69317
lfemur -34.5019 -1.90648 -20.4995
ltibia 53.6992
lfoot -7.92896 3.93279
ltoes 10.4411
83
root -1.30072 16.2428 -15.2711 1.64373 0.745066 -0.567196
lowerback 13.6033 1.46666 -3.76839
upperback -4.60853 1.46819 1.65307
thorax -12.9312 1.08578 3.60417
lowerneck -7.94499 -6.01044 -4.36075
upperneck 16.559 -8.40609 4.63649
head 6.73416 -3.96302 1.49437
rclavicle -7.52897e-015 1.19271e-014
rhumerus -31.4984 -3.83634 -81.9172
rradius 36.0516
rwrist -5.02194
rhand -12.1138 18.9865
rfingers 7.12502
rthumb 13.9473 -10.5257
lclavicle -7.52897e-015 1.19271e-014
lhumerus -43.8902 8.27876 84.2668
lradius 20.181
lwrist -1.89921
lhand -3.8123 17.803
lfingers 7.12502
lthumb 21.9342 46.5795
rfemur 1.53792 14.7389 29.7683
rtibia 18.3858
rfoot -16.788 -8.3925
rtoes -7.07292
lfemur -34.6134 -2.73981 -20.2537
ltibia 51.3206
lfoot -7.60289 4.13368
ltoes 11.0794
84
root -1.29507 16.2519 -15.1465 1.68381 0.562342 -0.834834
lowerback 13.4839 1.48064 -3.55908
upperback -4.57936 1.54571 1.77992
thorax -12.8292 1.10944 3.60768
lowerneck -7.70578 -5.95656 -4.37671
upperneck 16.2914 -8.32176 4.62341
head 6.60275 -3.93185 1.51066
rclavicle -1.14177e-014 2.38542e-015
rhumerus -31.0811 -3.25057 -82.0412
rradius 36.6744
rwrist -5.32767
rhand -11.7963 19.335
rfingers 7.12502
rthumb 14.2533 -10.1559
lclavicle -1.14177e-014 2.38542e-015
lhumerus -43.8034 8.44398 84.3497
lradius 20.4349
lwrist -1.7558
lhand -3.55079 18.3745
lfingers 7.12502
lthumb 22.1853 47.1214
rfemur 2.87243 14.8002 30.1495
rtibia 16.8086
rfoot -16.3363 -8.52974
rtoes -8.32781
lfemur -34.6897 -3.49373 -19.7326
ltibia 48.9648
lfoot -7.49625 4.49809
ltoes 11.6033
85
root -1.28879 16.2592 -15.0188 1.7144 0.550431 -0.96508
lowerback 13.256 1.45915 -3.45835
upperback -4.45937 1.55255 1.86599
thorax -12.5526 1.10155 3.64547
lowerneck -8.10284 -5.97291 -4.34428
upperneck 16.5176 -8.31768 4.46153
head 6.73602 -3.93091 1.43981
rclavicle 1.32316e-015 -1.68967e-014
rhumerus -30.4829 -2.85027 -82.0942
rradius 37.1262
rwrist -5.40598
rhand -11.2121 19.4046
rfingers 7.12502
rthumb 14.8161 -10.0458
lclavicle 1.32316e-015 -1.68967e-014
lhumerus -43.4711 8.62079 84.4904
lradius 20.533
lwrist -1.71498
lhand -3.49056 18.8076
lfingers 7.12502
lthumb 22.2431 47.5477
rfemur 4.36281 14.7541 30.388
rtibia 15.0006
rfoot -15.9011 -8.67595
rtoes -8.73445
lfemur -34.6666 -4.50322 -19.3289
ltibia 46.64
lfoot -7.47272 4.98693
ltoes 12.1238
86
root -1.27972 16.2644 -14.8899 1.76658 0.55777 -1.09641
lowerback 12.9962 1.45591 -3.28997
upperback -4.33941 1.59225 1.92047
thorax -12.2572 1.10205 3.60181
lowerneck -8.40142 -6.06607 -4.16089
upperneck 16.5655 -8.41093 4.15917
head 6.78684 -3.9831 1.29597
rclavicle -5.9449e-015 -1.78906e-015
rhumerus -29.9333 -2.29161 -82.1689
rradius 37.6236
rwrist -5.5703
rhand -11.1436 18.8871
rfingers 7.12502
rthumb 14.8822 -10.5583
lclavicle -5.9449e-015 -1.78906e-015
lhumerus -43.1224 8.94618 84.4654
lradius 20.4902
lwrist -1.94664
lhand -3.31624 19.121
lfingers 7.12502
lthumb 22.4104 47.8409
rfemur 5.99022 14.5741 30.5697
rtibia 12.9029
rfoot -15.3911 -8.61631
rtoes -8.9737
lfemur -34.6665 -5.59122 -18.8778
ltibia 44.4362
lfoot -7.53982 5.35203
ltoes 13.0221
87
root -1.27231 16.269 -14.7625 1.89207 0.428162 -1.25012
lowerback 12.8603 1.46229 -3.13744
upperback -4.39554 1.63846 1.977
thorax -12.2401 1.11572 3.56779
lowerneck -8.38203 -6.1201 -4.01736
upperneck 16.614 -8.46145 3.88767
head 6.78293 -4.02058 1.18234
rclavicle 8.20608e-015 1.47101e-014
rhumerus -29.642 -1.78158 -82.2817
rradius 38.0797
rwrist -5.64972
rhand -11.3797 19.2874
rfingers 7.12502
rthumb 14.6547 -10.1748
lclavicle 8.20608e-015 1.47101e-014
lhumerus -43.1508 8.89586 84.6497
lradius 20.7159
lwrist -1.79496
lhand -3.47767 19.919
lfingers 7.12502
lthumb 22.2555 48.6576
rfemur 7.77362 14.3466 30.7258
rtibia 10.3737
rfoot -14.5522 -8.52546
rtoes -10.2193
lfemur -34.7724 -6.68472 -18.3198
ltibia 42.3181
lfoot -7.78977 5.91029
ltoes 12.751
88
root -1.2639 16.2743 -14.638 1.9975 0.3213 -1.39449
lowerback 12.7721 1.50313 -2.97368
upperback -4.32996 1.73169 2.04129
thorax -12.1166 1.14709 3.52419
lowerneck -8.90021 -6.11902 -4.13395
upperneck 16.8617 -8.44035 3.91304
head 6.95894 -4.00393 1.1912
rclavicle 3.54085e-015 -1.25234e-014
rhumerus -29.0544 -1.36719 -82.2888
rradius 38.3941
rwrist -5.84162
rhand -11.3826 19.8017
rfingers 7.12502
rthumb 14.6519 -9.66066
lclavicle 3.54085e-015 -1.25234e-014
lhumerus -42.8252 8.53692 85.1202
lradius 20.9136
lwrist -1.44262
lhand -3.85173 20.1967
lfingers 7.12502
lthumb 21.8963 48.9777
rfemur 9.93555 14.1322 30.8714
rtibia 7.14876
rfoot -13.3767 -8.57233
rtoes -11.1961
lfemur -34.8991 -7.91377 -17.7043
ltibia 40.2751
lfoot -8.11607 6.81235
ltoes 10.4111
89
root -1.25493 16.286 -14.5094 2.10068 0.197336 -1.49385
lowerback 12.6756 1.54808 -2.85974
upperback -4.21674 1.82112 2.10774
thorax -11.9356 1.17908 3.51239
lowerneck -9.59437 -6.09336 -4.3077
upperneck 17.128 -8.3787 3.99146
head 7.17582 -3.96369 1.22472
rclavicle -5.82066e-015 -2.82274e-014
rhumerus -28.4252 -1.05007 -82.2643
rradius 38.7047
rwrist -5.81692
rhand -11.3499 19.8639
rfingers 7.12502
rthumb 14.6834 -9.59616
lclavicle -5.82066e-015 -2.82274e-014
lhumerus -42.3481 8.54197 85.298
lradius 20.6727
lwrist -1.37953
lhand -4.25649 18.8649
lfingers 7.12502
lthumb 21.5076 47.6908
rfemur 14.2882 13.9318 30.9493
rtibia 9.54166e-015
rfoot -10.4559 -8.65564
rtoes -11.6267
lfemur -34.9862 -9.19365 -17.0935
ltibia 38.3227
lfoot -8.58973 7.8559
ltoes 8.90674
90
root -1.24682 16.2927 -14.3847 2.21909 0.108756 -1.42196
lowerback 12.6895 1.45738 -3.05312
upperback -4.47718 1.66741 2.11524
thorax -12.2354 1.13149 3.66754
lowerneck -8.86244 -5.88527 -4.13757
upperneck 16.9718 -8.1174 3.87118
head 6.97213 -3.85223 1.20924
rclavicle -5.95112e-015 2.46493e-014
rhumerus -28.5943 -0.324032 -82.5184
rradius 39.0432
rwrist -5.85898
rhand -11.3584 19.9506
rfingers 7.12502
rthumb 14.6752 -9.51006
lclavicle -5.95112e-015 2.46493e-014
lhumerus -42.8912 8.50797 85.2449
lradius 20.9716
lwrist -0.863936
lhand -4.36103 18.4975
lfingers 7.12502
lthumb 21.4072 47.3349
rfemur 14.6451 13.6967 30.8458
rtibia 2.06736e-014
rfoot -10.6075 -8.34322
rtoes -12.7259
lfemur -35.1089 -10.6176 -16.6021
ltibia 36.4983
lfoot -8.96997 9.05686
ltoes 9.76472
91
root -1.23989 16.299 -14.2594 2.31006 0.00594999 -1.56121
lowerback 12.646 1.52993 -2.8696
upperback -4.37933 1.80134 2.14661
thorax -12.1036 1.17814 3.56633
lowerneck -9.27869 -5.92333 -4.20871
upperneck 16.9921 -8.14555 3.88011
head 7.05662 -3.86211 1.20768
rclavicle -7.23079e-015 1.19271e-015
rhumerus -28.0611 -0.0665434 -82.4743
rradius 39.2731
rwrist -5.92072
rhand -11.3814 19.8768
rfingers 7.12502
rthumb 14.653 -9.58548
lclavicle -7.23079e-015 1.19271e-015
lhumerus -42.4249 8.27803 85.4809
lradius 21.0467
lwrist -0.654562
lhand -4.38302 18.0297
lfingers 7.12502
lthumb 21.3861 46.8695
rfemur 15.0357 13.4726 30.9898
rtibia 7.95139e-015
rfoot -10.6962 -8.08134
rtoes -14.3111
lfemur -35.2647 -12.0483 -15.8175
ltibia 34.8889
lfoot -9.42553 10.2378
ltoes 11.9295
92
root -1.22724 16.3055 -14.1258 2.37805 -0.228227 -1.71804
lowerback 12.4105 1.60805 -2.65976
upperback -4.34964 1.94565 2.13087
thorax -11.9311 1.22648 3.39859
lowerneck -9.28279 -5.92424 -4.12971
upperneck 17.0457 -8.16687 3.90667
head 7.07331 -3.86445 1.20078
rclavicle -8.64713e-015 5.96354e-015
rhumerus -27.8185 0.0580993 -82.543
rradius 39.4737
rwrist -5.83477
rhand -11.281 19.9201
rfingers 7.12502
rthumb 14.7498 -9.53507
lclavicle -8.64713e-015 5.96354e-015
lhumerus -42.243 8.09179 85.4892
lradius 21.0283
lwrist -0.685646
lhand -4.66557 17.157
lfingers 7.12502
lthumb 21.1147 46.0273
rfemur 15.4742 13.3764 31.1422
rtibia 1.90833e-014
rfoot -10.8047 -7.89154
rtoes -16.1494
lfemur -35.4035 -13.3967 -15.0267
ltibia 33.5064
lfoot -10.0112 11.6247
ltoes 13.6971
